<svg xmlns="http://www.w3.org/2000/svg" width="208.002" height="42.519" viewBox="0 0 208.002 42.519">
  <g id="Grupo_15" data-name="Grupo 15" transform="translate(-317.163 -276.543)">
    <g id="Grupo_14" data-name="Grupo 14">
      <g id="Grupo_1" data-name="Grupo 1">
        <path id="Caminho_1" data-name="Caminho 1" d="M370.895,310.368l-.306-.265a.876.876,0,0,1-.291-.739,1.07,1.07,0,0,1,.406-.715,2.524,2.524,0,0,1,.876-.54,5.938,5.938,0,0,0,.936-1.837,8.645,8.645,0,0,0,.49-2.583l.087-1.551c.037-.443.066-.948.087-1.518l.014-1.3-.044-3.2q0-6.279-.3-11.078a1.042,1.042,0,0,1-.416.079,3.138,3.138,0,0,1-.955.125.81.81,0,0,1-.763-.82q.039-1.108,3.808-.974l.412.015a3.923,3.923,0,0,1,.7.072,1,1,0,0,1,.466.256.663.663,0,0,1,.233.579q-.03.822-1.36.775a.029.029,0,0,1-.031-.032l-.062,0-.412-.014-.009.253a22.715,22.715,0,0,0,.1,2.444q.091,1.844.069,2.476-.08,2.25.1,6.157.121,3.683.032,6.185l-.046,1.267-.045,1.266a6.893,6.893,0,0,1-.928,3.344,4.069,4.069,0,0,1-2.335,1.9Z" fill="#008565"/>
      </g>
      <g id="Grupo_2" data-name="Grupo 2">
        <path id="Caminho_2" data-name="Caminho 2" d="M384.784,307.491a.9.9,0,0,1-.349-.825,27.494,27.494,0,0,0-.317-3.232l-.127-.666-3.137-.475q-.191.728-.539,2.947a4.411,4.411,0,0,1-.6,2.06.754.754,0,0,1-.635.284,1.127,1.127,0,0,1-.7-.237.71.71,0,0,1-.318-.586l.064-.158.032-.127a140.953,140.953,0,0,0,3.169-16.068c0-.084.011-.226.032-.428s.042-.491.063-.871q.1-1.173.206-1.87a2.451,2.451,0,0,1,.364-1.046h1.079a1.353,1.353,0,0,1,.759.207.655.655,0,0,1,.317.586,56.449,56.449,0,0,0,.666,7.161,62.434,62.434,0,0,1,.634,6.846,7.469,7.469,0,0,0,.158.983,6,6,0,0,1,.159.95q0,.222.316,1.9a14.215,14.215,0,0,1,.286,1.964v.033a.836.836,0,0,1-.508.887A2.064,2.064,0,0,1,384.784,307.491Zm-1.11-7.037a66.918,66.918,0,0,0-.506-7.29l-.317-3.3q-1.364,7.448-1.871,11.251a8.024,8.024,0,0,0,2.789.508A6.076,6.076,0,0,1,383.674,300.454Zm-1.109-15.767a.346.346,0,0,1-.158-.3.455.455,0,0,1,.158-.317l.508-.444q.158-.158,1.773-1.553l1.871-1.616a.617.617,0,0,1,.286-.064.907.907,0,0,1,.7.381,1.225,1.225,0,0,1,.316.792.536.536,0,0,1-.22.507,33.872,33.872,0,0,1-4.627,2.662.369.369,0,0,1-.255.063A.586.586,0,0,1,382.565,284.687Z" fill="#008565"/>
      </g>
      <g id="Grupo_3" data-name="Grupo 3">
        <path id="Caminho_3" data-name="Caminho 3" d="M395.613,305.383q.1-3.675,0-11.763t-.379-8.539a1.55,1.55,0,0,1,.735-1.343,2.5,2.5,0,0,1,.721-.249,3.621,3.621,0,0,1,.842-.087,6.1,6.1,0,0,1,.793-.009,1.768,1.768,0,0,1,1.038.267.984.984,0,0,1,.294.847.6.6,0,0,1-.268.517,1.1,1.1,0,0,1-.639.155l-.316-.04-.443-.012q-.887-.026-.9.323-.045,1.648.1,4.315.129,2.223.135,4.221c.149-.039.432-.1.845-.183a4.589,4.589,0,0,1,.94-.116.769.769,0,0,1,.593.317,1.034,1.034,0,0,1,.234.688.655.655,0,0,1-.429.623c-.043.02-.146.064-.305.134a1.859,1.859,0,0,1-.623.126c-.19.015-.508.038-.952.067l-.349-.01q-.053,1.9.173,5.173.188,3.432.139,5.172l-.035.126-.033.063a1.961,1.961,0,0,1,.02.412.8.8,0,0,1-.3.642,1.14,1.14,0,0,1-.766.216Q395.555,307.411,395.613,305.383Z" fill="#008565"/>
      </g>
      <g id="Grupo_4" data-name="Grupo 4">
        <path id="Caminho_4" data-name="Caminho 4" d="M405.659,306.237a11.048,11.048,0,0,1-1.628-4.323,36.97,36.97,0,0,1-.576-5.785q-.084-2.793,0-6.056l.07-2.629q.06-1.109.094-2.344a.857.857,0,0,1-.236-.641.967.967,0,0,1,.3-.673.858.858,0,0,1,.642-.284q1.142.031,1.081,2.28-.039,1.456.012,5.516t.012,5.516a8.233,8.233,0,0,1,.257,1.656,18.656,18.656,0,0,1,.088,2.032,8.522,8.522,0,0,0,.176,1.732,13.371,13.371,0,0,0,.578,2.093,5.38,5.38,0,0,0,1.029,1.85,1.919,1.919,0,0,0,1.375.749,1.047,1.047,0,0,0,.752-.264,1.443,1.443,0,0,0,.417-.815,8.164,8.164,0,0,0,.237-1.736l.165-6.178a25.508,25.508,0,0,0-.143-2.984q-.137-2-.11-3.015l0-.222c.009-.337.008-.644-.006-.919l-.007-.919q.024-.888-.024-2.7-.082-1.62-.054-2.728a.726.726,0,0,1,.38-.593,1.394,1.394,0,0,1,.814-.231l.773.75-.014.537a4.191,4.191,0,0,1-.151.917c-.1.589-.152.925-.154,1.01q-.076,2.881.106,7.96.144,5.331.064,8.276a11.042,11.042,0,0,1-.39,2.78,3.338,3.338,0,0,1-.554,1.159,2.806,2.806,0,0,1-.923.735,2.723,2.723,0,0,1-1.4.28A3.553,3.553,0,0,1,405.659,306.237Z" fill="#008565"/>
      </g>
      <g id="Grupo_5" data-name="Grupo 5">
        <path id="Caminho_5" data-name="Caminho 5" d="M415.083,306.325q.028-.759.98-.722l.379.015a1.19,1.19,0,0,0,.285.042.41.41,0,0,0,.37-.145,1.051,1.051,0,0,0,.133-.565q.1-2.691-.031-7.359-.1-4.857,0-7.327.034-.885.094-1.613l.094-1.614a13.139,13.139,0,0,0-.028-1.746,2.091,2.091,0,0,1-.732.1.659.659,0,0,1-.7-.787.8.8,0,0,1,.485-.647,3.335,3.335,0,0,1,1.2-.366,14.1,14.1,0,0,1,2.258-.135.921.921,0,0,1,.639.279.8.8,0,0,1,.245.613.925.925,0,0,1-.229.593.644.644,0,0,1-.532.233,1.294,1.294,0,0,1-.315-.044l-.253-.01a.635.635,0,0,0-.466.124.746.746,0,0,0-.163.518q-.13,3.355.053,9.263.14,6.189.019,9.293l-.047,1.2a4.64,4.64,0,0,1,.635-.007q1.33.053,1.287,1.159l-.007.191-.813.507c-.021,0-.085,0-.191.009s-.317,0-.634-.009q-1.08.021-1.332.012Q415.046,307.276,415.083,306.325Z" fill="#008565"/>
      </g>
      <g id="Grupo_6" data-name="Grupo 6">
        <path id="Caminho_6" data-name="Caminho 6" d="M441.877,306.576v-4.449q0-1.736-.243-4.551-.281-3.163-.28-4.346l.071-2.154q.068-.939.068-2.12-.138.451-1.146,4.8-1.008,4.2-2.086,7.786-1.041,3.439-1.7,3.439a1.431,1.431,0,0,1-1.061-.4,1.476,1.476,0,0,1-.4-1.1,35.623,35.623,0,0,0-1.233-6.5q-1.236-4.97-2.242-8.133l-.209,3.928q-.277,4.97-.382,8.272-.07,3.2-.07,4.378a3.555,3.555,0,0,0,.036.521v.487a1.373,1.373,0,0,1-.244.886,1.129,1.129,0,0,1-.9.3,1.022,1.022,0,0,1-.66-.26.745.745,0,0,1-.312-.574q0-3.545.521-10.635t.521-10.635a1.174,1.174,0,0,1-.209-.66.705.705,0,0,1,.4-.643,1.9,1.9,0,0,1,.954-.226q.452,0,1.669,3.267t2.432,7.4q1.217,4.135,1.565,5.977c.185-.626.335-1.2.452-1.738l.207-.834q1.115-4.865,2.225-8.793a25.317,25.317,0,0,1,1.287-3.753q.624-1.46,1.146-1.46a1.593,1.593,0,0,1,.886.26.784.784,0,0,1,.4.679q0,2.5.21,7.507.243,4.657.243,7.229l-.034,1.842-.071,1.842a11,11,0,0,0,.1,1.251l.1,1.217c.022.207.041.37.052.486s.017.186.017.208a2.15,2.15,0,0,1,.175.661,1.667,1.667,0,0,1-.348,1.042,1.031,1.031,0,0,1-.835.453Q441.877,308.732,441.877,306.576Z" fill="#008565"/>
      </g>
      <g id="Grupo_7" data-name="Grupo 7">
        <path id="Caminho_7" data-name="Caminho 7" d="M453.892,306.634a.734.734,0,0,1-.25-.6l-.161-3.972a4.327,4.327,0,0,0-1.506-.425,16.262,16.262,0,0,0-2.073-.189,5.135,5.135,0,0,0-.423,1.565l-.1.611q-.021.215-.144.949a10.454,10.454,0,0,1-.283,1.271,4.546,4.546,0,0,1-.329.849q-1.154.047-1.359-.552a10.048,10.048,0,0,0,.642-2.882l.777-5.589q.507-3.967.956-6.782a38.345,38.345,0,0,1,1.01-4.718q.612-2.121,1.249-2.146a1.647,1.647,0,0,1,.98.2q.048,1.213.813,5.829a57.219,57.219,0,0,1,.857,6.192,45.044,45.044,0,0,0,.52,4.6q.427,3.049.5,4.869a.9.9,0,0,1-.959,1.072A1.144,1.144,0,0,1,453.892,306.634Zm-.517-6.418q-.145-1.33-.437-3.293-.973-6.825-1.036-8.371l-.01-.243a8.858,8.858,0,0,0-.723,2.778q-.432,2.463-.774,5.27a36.832,36.832,0,0,0-.337,3.719,9.786,9.786,0,0,0,2.715.255A2.524,2.524,0,0,0,453.375,300.216Z" fill="#008565"/>
      </g>
      <g id="Grupo_8" data-name="Grupo 8">
        <path id="Caminho_8" data-name="Caminho 8" d="M467.93,306.8a1.609,1.609,0,0,1-.314-.781l-.209-.662v-.173q0-1.146-2.38-7.819t-3.736-9.871v17.481l.139.243c.023.047.07.128.139.244a.67.67,0,0,1,.1.348,1.067,1.067,0,0,1-1.078,1.077q-1.111,0-1.112-2.119l-.034-5.943q-.036-2.678-.035-5.979,0-1.111.105-3.232.1-2.19.1-3.232a3.04,3.04,0,0,1,1.251-2.572v.209a1.09,1.09,0,0,1,.278-.069q.8,0,2.015,2.78a47.278,47.278,0,0,1,1.755,4.692q.785,2.467,2.069,7.02l.347,1.251q.8,2.815,1.217,4.031.695-7.47.694-17.654v-.453a2.772,2.772,0,0,1-.034-.452q0-1.041.834-1.042a.854.854,0,0,1,.748.382,1.7,1.7,0,0,1,.26.974v2.606q-.07,5.35-.416,11.608t-.835,7.056a7.141,7.141,0,0,1-1.251.277A.808.808,0,0,1,467.93,306.8Z" fill="#008565"/>
      </g>
      <g id="Grupo_9" data-name="Grupo 9">
        <path id="Caminho_9" data-name="Caminho 9" d="M475.244,302.58l.069-5.491q.036-2.433.036-5.456,0-1.114-.209-3.441-.176-2.536-.173-3.094a1.054,1.054,0,0,1,.382-.8,1.214,1.214,0,0,1,.833-.346,5.39,5.39,0,0,1,2.346.538,6.286,6.286,0,0,1,2,1.512,10.751,10.751,0,0,1,2.433,4.657,10.626,10.626,0,0,1,.314,2.537c0,.3-.012.58-.036.834l-.034.938v1.912a34.644,34.644,0,0,1-.139,3.51,10.979,10.979,0,0,1-.8,3.093,7.961,7.961,0,0,1-2.016,2.606,9.5,9.5,0,0,1-1.6,1.044h-2.5Q475.245,307.133,475.244,302.58Zm3.719,2.414a3.276,3.276,0,0,0,1.008-.99,6.969,6.969,0,0,0,.642-1.407,10.705,10.705,0,0,0,.436-1.651,21.058,21.058,0,0,0,.382-3.2q.033-.417.034-1.217,0-10.5-4.066-10.947a23.647,23.647,0,0,0-.244,3.614q0,2.19.278,7.647.243,4.828.243,7.68v.833A2.4,2.4,0,0,0,478.963,304.994Z" fill="#008565"/>
      </g>
      <g id="Grupo_10" data-name="Grupo 10">
        <path id="Caminho_10" data-name="Caminho 10" d="M485.775,305.846q0-.833,1.076-.833h.384l.346.034a.4.4,0,0,0,.382-.174,1.3,1.3,0,0,0,.1-.626c0-.393-.023-1.008-.069-1.841q-.105-.834-.243-2.99-.314-5.316-.314-8.027c0-.649.013-1.24.035-1.773l.036-1.772a14.582,14.582,0,0,0-.105-1.911,3.85,3.85,0,0,1-.8.139.738.738,0,0,1-.833-.835.88.88,0,0,1,.521-.73,3.843,3.843,0,0,1,1.321-.452,12.856,12.856,0,0,1,2.468-.278.969.969,0,0,1,.711.295.938.938,0,0,1,.3.679,1.012,1.012,0,0,1-.227.659.707.707,0,0,1-.574.28,1.482,1.482,0,0,1-.348-.036h-.277a.7.7,0,0,0-.5.157.8.8,0,0,0-.156.573q0,3.371.416,10.148.07,1.252.278,3.684a29.928,29.928,0,0,1,.175,3.267V304.8a4.837,4.837,0,0,1,.694-.034q1.459,0,1.46,1.215v.209l-.869.591c-.023,0-.1.006-.226.017s-.365.017-.711.017c-.743.047-1.217.07-1.426.07Q485.775,306.889,485.775,305.846Z" fill="#008565"/>
      </g>
      <g id="Grupo_11" data-name="Grupo 11">
        <path id="Caminho_11" data-name="Caminho 11" d="M497.312,307.011a4.286,4.286,0,0,1-1.251-1.547,13.757,13.757,0,0,1-1.251-4.622,34.793,34.793,0,0,1-.312-4.553,5.792,5.792,0,0,1,.034-.694v-.627c0-.116-.012-.174-.034-.174v-.625l.034-2.433q.034-1.111.278-3.544a11.933,11.933,0,0,1,.8-3.232,2.634,2.634,0,0,1,.625-1.061,1.227,1.227,0,0,1,.869-.365,6,6,0,0,1,2.5.5,5.288,5.288,0,0,1,1.877,1.408,7.966,7.966,0,0,1,1.182,2.137,12.614,12.614,0,0,1,.694,2.694,21.882,21.882,0,0,1,.209,3.093v.278q0,1.075.035,1.947l.035,1.981q0,10.007-4.657,10.008A2.726,2.726,0,0,1,497.312,307.011Zm2.676-1.391a3.262,3.262,0,0,0,.8-1.373,13.555,13.555,0,0,0,.8-3.822q.174-1.773.173-3.058,0-1.566-.243-4.1-.209-2.678-.207-4v-.626a3.8,3.8,0,0,0-.886-2.293,2.523,2.523,0,0,0-2-.973,1.571,1.571,0,0,0-1.563,1.356,9.2,9.2,0,0,0-.348,2.779q0,.663.034,1.112v.939l-.068,1.6q-.07.73-.071,1.6,0,1.876.105,3.719a30.226,30.226,0,0,0,.7,5.074q.553,2.571,1.633,2.572A1.617,1.617,0,0,0,499.988,305.62Z" fill="#008565"/>
      </g>
      <g id="Grupo_12" data-name="Grupo 12">
        <path id="Caminho_12" data-name="Caminho 12" d="M510.467,307.184a5.012,5.012,0,0,1-1.3-.5q-2.328-1.492-2.328-8.167v-2.85q0-1.389.035-2.485t.139-2.38a14.07,14.07,0,0,1,.312-2.207,11.3,11.3,0,0,1,.7-1.93,4.335,4.335,0,0,1,1.025-1.563,5.067,5.067,0,0,1,1.581-.939,5.37,5.37,0,0,1,2.155-.382,1.178,1.178,0,0,1,.8.244.793.793,0,0,1,.277.625.961.961,0,0,1-.226.626.794.794,0,0,1-.538.313h-1.633a1.466,1.466,0,0,0-1.217.869,6.156,6.156,0,0,0-.73,2.259,25.243,25.243,0,0,0-.452,4.171v.173l-.069,3.336q-.07,1.5-.07,3.371a17.718,17.718,0,0,0,.1,2.156,6.736,6.736,0,0,0,.591,2.084,2.554,2.554,0,0,0,1.424,1.355,3.066,3.066,0,0,0,1.148.209,1.3,1.3,0,0,0,.764-.277,1.365,1.365,0,0,1,.747.19.64.64,0,0,1,.3.574q0,1.355-1.911,1.355A6.24,6.24,0,0,1,510.467,307.184Z" fill="#008565"/>
      </g>
      <g id="Grupo_13" data-name="Grupo 13">
        <path id="Caminho_13" data-name="Caminho 13" d="M523.448,306.91a.986.986,0,0,1-.407-.894,30.111,30.111,0,0,0-.448-3.532l-.159-.726-3.455-.424q-.184.8-.5,3.248a4.832,4.832,0,0,1-.6,2.276.829.829,0,0,1-.687.332,1.245,1.245,0,0,1-.771-.239.779.779,0,0,1-.366-.633l.065-.175.031-.14a154.485,154.485,0,0,0,2.976-17.712c0-.092.005-.249.022-.469s.03-.541.042-.958q.069-1.289.168-2.057a2.7,2.7,0,0,1,.367-1.157l1.182-.033a1.477,1.477,0,0,1,.839.2.725.725,0,0,1,.366.633,62.088,62.088,0,0,0,.951,7.83,68.468,68.468,0,0,1,.908,7.485,8.26,8.26,0,0,0,.2,1.072,6.438,6.438,0,0,1,.2,1.037q.008.243.406,2.075a15.659,15.659,0,0,1,.374,2.144v.036a.919.919,0,0,1-.529.989A2.269,2.269,0,0,1,523.448,306.91Zm-1.434-7.679a73.082,73.082,0,0,0-.781-7.974l-.449-3.6q-1.265,8.205-1.7,12.39a8.805,8.805,0,0,0,3.073.47A6.689,6.689,0,0,1,522.014,299.231Z" fill="#008565"/>
      </g>
    </g>
    <path id="Caminho_14" data-name="Caminho 14" d="M357.759,289.681c-.037-.2-.081-.475-.136-.8-.419-2.531-1.292-7.8-2.952-9.626-1.974-2.172-4.24-2.916-8.085-2.666-2.6.172-7.385.88-12.017,1.567-2.423.359-4.712.7-6.5.932-4.718.613-6.266,1.922-7.762,3.186-.168.141-.334.281-.506.422-1.746,1.428-2.983,5.425-2.545,8.225.174,1.108.3,2.35.455,3.786.208,1.992.467,4.468.954,7.626.125.814.225,1.538.316,2.187.516,3.717.709,5.108,3.267,7.255a6.793,6.793,0,0,0,6.041,1.385c-.863,2.926-1.794,4.067-2.43,4.675a.64.64,0,0,0-.119.791.877.877,0,0,0,.779.436.959.959,0,0,0,.252-.033,15.171,15.171,0,0,0,4.81-2.6,22.974,22.974,0,0,1,8.735-4.058,31.949,31.949,0,0,1,5.95-.829,37.248,37.248,0,0,0,7.505-1.122c4.626-1.337,5.433-4.456,5.611-7.329C359.545,300.45,357.976,290.876,357.759,289.681ZM338.98,279.187c1.578-.215,3.068-.42,4.122-.54.329-.037.668-.078,1.013-.122,2.606-.326,5.561-.692,7.649.751,2.491,1.723,3.319,3.3,3.852,7.34.244,1.846.559,3.974.863,6.035.395,2.666.767,5.183.889,6.466.023.248.051.511.08.786.229,2.161.541,5.123-.608,6.429a7.937,7.937,0,0,0-.63.837c-.639.944-1.025,1.515-6.07,2.476-2.723.521-4.645.711-6.34.878a27.132,27.132,0,0,0-6.636,1.261,12.07,12.07,0,0,0-4.3,2.339,20.152,20.152,0,0,1-4.362,2.7c.818-1.192,1.974-3.2,1.768-4.809a.649.649,0,0,0-.271-.531.385.385,0,0,0-.193-.05.531.531,0,0,0-.229.056l-.189.1a4.4,4.4,0,0,1-1.744.579h-.063a7.861,7.861,0,0,1-4.455-1.6c-1.048-.859-1.8-2.17-2.3-6.038-.613-4.694-1.436-10.728-1.864-12.82-.491-2.4-.415-5.83,1.411-7.63.227-.225.436-.434.63-.628a8.363,8.363,0,0,1,4.408-2.811c2.611-.781,4.334-.5,6.544-.609C333.354,279.956,336.215,279.565,338.98,279.187Z" fill="#008565"/>
  </g>
</svg>
